<?xml version="1.0" encoding="UTF-8"?>
<svg id="maretha" xmlns="http://www.w3.org/2000/svg" version="1.1" viewBox="0 0 240.35 239.99">
  <!-- Generator: Adobe Illustrator 30.3.0, SVG Export Plug-In . SVG Version: 2.1.3 Build 182)  -->
  <path d="M133.12,233.26c-9.73,2.11-17.82,2.61-27.06-1.14-23-12.99-23.24-31.65-45.08-52.96-21.84-21.31-46-22.79-54.11-46.12-2.11-9.73-2.61-17.82,1.14-27.06,13.21-25.53,31.76-23.86,52.93-45.11,21.17-21.26,22.83-45.96,46.16-54.07,9.73-2.11,17.82-2.61,27.06,1.14,23,12.99,23.24,31.65,45.08,52.96,21.84,21.31,46,22.79,54.11,46.12,2.11,9.73,2.61,17.82-1.14,27.06-13.51,25.56-31.88,24.46-52.44,45.61-20.56,21.14-23.32,45.47-46.65,53.58Z" fill="none" stroke="#e8bf50" stroke-miterlimit="10" stroke-width="11"/>
</svg>